<?xml version="1.0" encoding="utf-8"?>
    <svg xmlns="http://www.w3.org/2000/svg" viewBox="0 0 160 240" width="160" height="240">
      <defs>
        <linearGradient id="proj-card-grad" x1="0%" y1="0%" x2="100%" y2="100%">
          <stop offset="0%" stop-color="#0b0e14"/>
          <stop offset="100%" stop-color="#06080b"/>
        </linearGradient>
        <filter id="border-glow-gold" x="-20%" y="-20%" width="140%" height="140%">
          <feGaussianBlur stdDeviation="3.5" result="blur" />
          <feComposite in="SourceGraphic" in2="blur" operator="over"/>
        </filter>
        <filter id="project-glow" x="-30%" y="-30%" width="160%" height="160%">
          <feGaussianBlur stdDeviation="2.5" result="blur" />
          <feComposite in="SourceGraphic" in2="blur" operator="over"/>
        </filter>
      </defs>
      <rect x="2" y="2" width="156" height="236" rx="8" fill="url(#proj-card-grad)" stroke="#ffd700" stroke-width="1.2" filter="url(#border-glow-gold)"/>
      <text x="15" y="26" font-family="'Outfit', sans-serif" font-weight="700" font-size="8.5" fill="#8b949e" letter-spacing="0.3">DEEP LEARNING</text>
      <circle cx="145" cy="23" r="3.5" fill="#ffd700"/>
      
    <g transform="translate(15, 65)" stroke="#00d2ff" stroke-width="1.5" fill="none" filter="url(#project-glow)">
      <path d="M 65,15 A 30,35 0 0 0 35,50 A 20,20 0 0 0 45,75 A 15,20 0 0 0 65,95 V 15 Z" fill="#1f2937" opacity="0.4"/>
      <path d="M 65,15 A 30,35 0 0 1 95,50 A 20,20 0 0 1 85,75 A 15,20 0 0 1 65,95 V 15 Z" fill="#1f2937" opacity="0.4"/>
      <circle cx="45" cy="35" r="3" fill="#00d2ff"/>
      <circle cx="85" cy="35" r="3" fill="#00d2ff"/>
      <circle cx="35" cy="55" r="3" fill="#ab47bc"/>
      <circle cx="95" cy="55" r="3" fill="#ab47bc"/>
      <circle cx="50" cy="75" r="3" fill="#3fb950"/>
      <circle cx="80" cy="75" r="3" fill="#3fb950"/>
      <line x1="45" y1="35" x2="35" y2="55" stroke="#8b949e" stroke-width="0.8"/>
      <line x1="85" y1="35" x2="95" y2="55" stroke="#8b949e" stroke-width="0.8"/>
      <line x1="35" y1="55" x2="50" y2="75" stroke="#8b949e" stroke-width="0.8"/>
      <line x1="95" y1="55" x2="80" y2="75" stroke="#8b949e" stroke-width="0.8"/>
      <line x1="45" y1="35" x2="65" y2="50" stroke="#8b949e" stroke-width="0.8"/>
      <line x1="85" y1="35" x2="65" y2="50" stroke="#8b949e" stroke-width="0.8"/>
    </g>
  
      <text x="15" y="198" font-family="'Outfit', sans-serif" font-size="11.5" font-weight="700" fill="#ffffff">Image</text>
      <text x="15" y="214" font-family="'Outfit', sans-serif" font-size="11.5" font-weight="700" fill="#ffffff">Classification CNN Model</text>
    </svg>
  