<?xml version="1.0" encoding="utf-8"?>
    <svg xmlns="http://www.w3.org/2000/svg" viewBox="0 0 160 240" width="160" height="240">
      <defs>
        <linearGradient id="proj-card-grad" x1="0%" y1="0%" x2="100%" y2="100%">
          <stop offset="0%" stop-color="#0b0e14"/>
          <stop offset="100%" stop-color="#06080b"/>
        </linearGradient>
        <filter id="border-glow-purple" x="-20%" y="-20%" width="140%" height="140%">
          <feGaussianBlur stdDeviation="3.5" result="blur" />
          <feComposite in="SourceGraphic" in2="blur" operator="over"/>
        </filter>
        <filter id="project-glow" x="-30%" y="-30%" width="160%" height="160%">
          <feGaussianBlur stdDeviation="2.5" result="blur" />
          <feComposite in="SourceGraphic" in2="blur" operator="over"/>
        </filter>
      </defs>
      <rect x="2" y="2" width="156" height="236" rx="8" fill="url(#proj-card-grad)" stroke="#ab47bc" stroke-width="1.2" filter="url(#border-glow-purple)"/>
      <text x="15" y="26" font-family="'Outfit', sans-serif" font-weight="700" font-size="8.5" fill="#8b949e" letter-spacing="0.3">MLOPS</text>
      <circle cx="145" cy="23" r="3.5" fill="#ab47bc"/>
      
    <g transform="translate(15, 65)" stroke="#ab47bc" stroke-width="2.5" fill="none" filter="url(#project-glow)">
      <path d="M 35,50 C 10,25 10,75 35,50 C 60,25 90,25 115,50 C 140,75 140,25 115,50 C 90,75 60,75 35,50 Z" stroke-dasharray="6,3"/>
      <circle cx="35" cy="50" r="4.5" fill="#ffffff" stroke="#ab47bc" stroke-width="1.5"/>
      <circle cx="115" cy="50" r="4.5" fill="#ffffff" stroke="#ab47bc" stroke-width="1.5"/>
      <text x="35" y="38" font-family="sans-serif" font-size="7.5" fill="#8b949e" font-weight="bold" text-anchor="middle">CI</text>
      <text x="115" y="38" font-family="sans-serif" font-size="7.5" fill="#8b949e" font-weight="bold" text-anchor="middle">CD</text>
    </g>
  
      <text x="15" y="198" font-family="'Outfit', sans-serif" font-size="11.5" font-weight="700" fill="#ffffff">End-to-End ML</text>
      <text x="15" y="214" font-family="'Outfit', sans-serif" font-size="11.5" font-weight="700" fill="#ffffff">Pipeline</text>
    </svg>
  