<?xml version="1.0" encoding="utf-8"?>
    <svg xmlns="http://www.w3.org/2000/svg" viewBox="0 0 160 240" width="160" height="240">
      <defs>
        <linearGradient id="proj-card-grad" x1="0%" y1="0%" x2="100%" y2="100%">
          <stop offset="0%" stop-color="#0b0e14"/>
          <stop offset="100%" stop-color="#06080b"/>
        </linearGradient>
        <filter id="border-glow-orange" x="-20%" y="-20%" width="140%" height="140%">
          <feGaussianBlur stdDeviation="3.5" result="blur" />
          <feComposite in="SourceGraphic" in2="blur" operator="over"/>
        </filter>
        <filter id="project-glow" x="-30%" y="-30%" width="160%" height="160%">
          <feGaussianBlur stdDeviation="2.5" result="blur" />
          <feComposite in="SourceGraphic" in2="blur" operator="over"/>
        </filter>
      </defs>
      <rect x="2" y="2" width="156" height="236" rx="8" fill="url(#proj-card-grad)" stroke="#ff7043" stroke-width="1.2" filter="url(#border-glow-orange)"/>
      <text x="15" y="26" font-family="'Outfit', sans-serif" font-weight="700" font-size="8.5" fill="#8b949e" letter-spacing="0.3">NLP PROJECT</text>
      <circle cx="145" cy="23" r="3.5" fill="#ff7043"/>
      
    <g transform="translate(15, 65)" filter="url(#project-glow)">
      <circle cx="35" cy="50" r="16" fill="#1f2937" stroke="#3fb950" stroke-width="1.5"/>
      <circle cx="29" cy="46" r="2" fill="#3fb950"/>
      <circle cx="41" cy="46" r="2" fill="#3fb950"/>
      <path d="M 29,54 Q 35,60 41,54" stroke="#3fb950" stroke-width="1.5" fill="none"/>
      <circle cx="65" cy="50" r="16" fill="#1f2937" stroke="#ffd700" stroke-width="1.5"/>
      <circle cx="59" cy="46" r="2" fill="#ffd700"/>
      <circle cx="71" cy="46" r="2" fill="#ffd700"/>
      <line x1="59" y1="55" x2="71" y2="55" stroke="#ffd700" stroke-width="1.5"/>
      <circle cx="95" cy="50" r="16" fill="#1f2937" stroke="#ff7043" stroke-width="1.5"/>
      <circle cx="89" cy="46" r="2" fill="#ff7043"/>
      <circle cx="101" cy="46" r="2" fill="#ff7043"/>
      <path d="M 89,58 Q 95,52 101,58" stroke="#ff7043" stroke-width="1.5" fill="none"/>
    </g>
  
      <text x="15" y="198" font-family="'Outfit', sans-serif" font-size="11.5" font-weight="700" fill="#ffffff">Twitter</text>
      <text x="15" y="214" font-family="'Outfit', sans-serif" font-size="11.5" font-weight="700" fill="#ffffff">Sentiment Analysis</text>
    </svg>
  