<?xml version="1.0" encoding="utf-8"?>
    <svg xmlns="http://www.w3.org/2000/svg" viewBox="0 0 160 240" width="160" height="240">
      <defs>
        <linearGradient id="proj-card-grad" x1="0%" y1="0%" x2="100%" y2="100%">
          <stop offset="0%" stop-color="#0b0e14"/>
          <stop offset="100%" stop-color="#06080b"/>
        </linearGradient>
        <filter id="border-glow-blue" x="-20%" y="-20%" width="140%" height="140%">
          <feGaussianBlur stdDeviation="3.5" result="blur" />
          <feComposite in="SourceGraphic" in2="blur" operator="over"/>
        </filter>
        <filter id="project-glow" x="-30%" y="-30%" width="160%" height="160%">
          <feGaussianBlur stdDeviation="2.5" result="blur" />
          <feComposite in="SourceGraphic" in2="blur" operator="over"/>
        </filter>
      </defs>
      <rect x="2" y="2" width="156" height="236" rx="8" fill="url(#proj-card-grad)" stroke="#00d2ff" stroke-width="1.2" filter="url(#border-glow-blue)"/>
      <text x="15" y="26" font-family="'Outfit', sans-serif" font-weight="700" font-size="8.5" fill="#8b949e" letter-spacing="0.3">ML PROJECT</text>
      <circle cx="145" cy="23" r="3.5" fill="#00d2ff"/>
      
    <g transform="translate(15, 65)">
      <rect x="5" y="10" width="120" height="70" rx="6" fill="#1f2937" stroke="#ffd700" stroke-width="1.5" filter="url(#project-glow)"/>
      <rect x="5" y="25" width="120" height="15" fill="#374151"/>
      <rect x="15" y="50" width="25" height="18" rx="2" fill="#ffd700"/>
      <g transform="translate(95, 42)" stroke="#00d2ff" stroke-width="1.5" fill="none">
        <rect x="0" y="8" width="18" height="14" rx="2" fill="#111827"/>
        <path d="M 4,8 V 4 A 5,5 0 0 1 14,4 V 8"/>
      </g>
    </g>
  
      <text x="15" y="198" font-family="'Outfit', sans-serif" font-size="11.5" font-weight="700" fill="#ffffff">Credit Card</text>
      <text x="15" y="214" font-family="'Outfit', sans-serif" font-size="11.5" font-weight="700" fill="#ffffff">Fraud Detection</text>
    </svg>
  