<?xml version="1.0" encoding="utf-8"?>
    <svg xmlns="http://www.w3.org/2000/svg" viewBox="0 0 110 150" width="110" height="150">
      <defs>
        <linearGradient id="skill-card-bg" x1="0%" y1="0%" x2="100%" y2="100%">
          <stop offset="0%" stop-color="#0f141c"/>
          <stop offset="100%" stop-color="#080b0f"/>
        </linearGradient>
        <filter id="skill-glow" x="-40%" y="-40%" width="180%" height="180%">
          <feGaussianBlur stdDeviation="1.5" result="blur"/>
          <feComposite in="SourceGraphic" in2="blur" operator="over"/>
        </filter>
        <filter id="glow-icon" x="-20%" y="-20%" width="140%" height="140%">
          <feGaussianBlur stdDeviation="2" result="blur"/>
          <feComposite in="SourceGraphic" in2="blur" operator="over"/>
        </filter>
      </defs>
      <rect x="2" y="2" width="106" height="146" rx="6" fill="url(#skill-card-bg)" stroke="#30363d" stroke-width="1"/>
      <text x="55" y="22" font-family="'Outfit', sans-serif" font-size="9" font-weight="700" fill="#c9d1d9" text-anchor="middle">AWS</text>
      <text x="55" y="32" font-family="'Outfit', sans-serif" font-size="8" font-weight="600" fill="#8b949e" text-anchor="middle">Intermediate</text>
      
    <g transform="translate(38, 48) scale(1.1)">
      <path d="M19.35 10.04C18.67 6.59 15.64 4 12 4 9.11 4 6.6 5.64 5.35 8.04 2.34 8.36 0 10.91 0 14c0 3.31 2.69 6 6 6h13c2.76 0 5-2.24 5-5 0-2.64-2.05-4.78-4.65-4.96zM19 18H6c-2.21 0-4-1.79-4-4 0-2.05 1.53-3.76 3.56-3.97l1.07-.11.5-.95C8.08 7.14 9.94 6 12 6c2.62 0 4.88 1.86 5.39 4.43l.3 1.5 1.53.11c1.56.1 2.78 1.41 2.78 2.96 0 1.65-1.35 3-3 3z" fill="#ffd700"/>
    </g>
  
      <g>
        <circle cx="22" cy="132" r="3.5" fill="#ab47bc" filter="url(#skill-glow)"/><circle cx="35" cy="132" r="3.5" fill="#ab47bc" filter="url(#skill-glow)"/><circle cx="48" cy="132" r="3.5" fill="#ab47bc" filter="url(#skill-glow)"/><circle cx="61" cy="132" r="3.5" fill="#21262d"/><circle cx="74" cy="132" r="3.5" fill="#21262d"/><circle cx="87" cy="132" r="3.5" fill="#21262d"/>
      </g>
    </svg>
  