<?xml version="1.0" encoding="utf-8"?>
    <svg xmlns="http://www.w3.org/2000/svg" viewBox="0 0 110 150" width="110" height="150">
      <defs>
        <linearGradient id="skill-card-bg" x1="0%" y1="0%" x2="100%" y2="100%">
          <stop offset="0%" stop-color="#0f141c"/>
          <stop offset="100%" stop-color="#080b0f"/>
        </linearGradient>
        <filter id="skill-glow" x="-40%" y="-40%" width="180%" height="180%">
          <feGaussianBlur stdDeviation="1.5" result="blur"/>
          <feComposite in="SourceGraphic" in2="blur" operator="over"/>
        </filter>
        <filter id="glow-icon" x="-20%" y="-20%" width="140%" height="140%">
          <feGaussianBlur stdDeviation="2" result="blur"/>
          <feComposite in="SourceGraphic" in2="blur" operator="over"/>
        </filter>
      </defs>
      <rect x="2" y="2" width="106" height="146" rx="6" fill="url(#skill-card-bg)" stroke="#30363d" stroke-width="1"/>
      <text x="55" y="22" font-family="'Outfit', sans-serif" font-size="9" font-weight="700" fill="#c9d1d9" text-anchor="middle">SQL</text>
      <text x="55" y="32" font-family="'Outfit', sans-serif" font-size="8" font-weight="600" fill="#8b949e" text-anchor="middle">Advanced</text>
      
    <g transform="translate(38, 48) scale(1.1)">
      <path d="M18 2H6C3.79 2 2 3.79 2 6v12c0 2.21 1.79 4 4 4h12c2.21 0 4-1.79 4-4V6c0-2.21-1.79-4-4-4zm-6 2.5c3.31 0 6 1.12 6 2.5S15.31 9.5 12 9.5 6 8.38 6 7s2.69-2.5 6-2.5zM6 9.87c.87.5 2.19.88 3.7.99C8.36 11.23 7.08 11.75 6 12.35v-2.48zm12 8.26c0 1.38-2.69 2.5-6 2.5s-6-1.12-6-2.5v-1.75c1.08.6 2.36 1.12 3.7 1.49-.62.15-1.07.41-1.37.69.75.24 1.75.37 2.67.37 3.31 0 6-1.12 6-2.5v-1.3z" fill="#58a6ff"/>
    </g>
  
      <g>
        <circle cx="22" cy="132" r="3.5" fill="#ab47bc" filter="url(#skill-glow)"/><circle cx="35" cy="132" r="3.5" fill="#ab47bc" filter="url(#skill-glow)"/><circle cx="48" cy="132" r="3.5" fill="#ab47bc" filter="url(#skill-glow)"/><circle cx="61" cy="132" r="3.5" fill="#ab47bc" filter="url(#skill-glow)"/><circle cx="74" cy="132" r="3.5" fill="#21262d"/><circle cx="87" cy="132" r="3.5" fill="#21262d"/>
      </g>
    </svg>
  