<?xml version="1.0" encoding="utf-8"?>
    <svg xmlns="http://www.w3.org/2000/svg" viewBox="0 0 180 240" width="180" height="240">
      <defs>
        <linearGradient id="card-grad" x1="0%" y1="0%" x2="100%" y2="100%">
          <stop offset="0%" stop-color="#0e131b"/>
          <stop offset="100%" stop-color="#080a0f"/>
        </linearGradient>
        <filter id="glow-orange" x="-20%" y="-20%" width="140%" height="140%">
          <feGaussianBlur stdDeviation="3" result="blur" />
          <feComposite in="SourceGraphic" in2="blur" operator="over"/>
        </filter>
      </defs>
      <rect x="2" y="2" width="176" height="236" rx="8" fill="url(#card-grad)" stroke="#ff7043" stroke-width="1.2" filter="url(#glow-orange)"/>
      <text x="90" y="32" font-family="'Outfit', sans-serif" font-size="12" font-weight="800" fill="#ff7043" text-anchor="middle" letter-spacing="0.5">DISCUSSIONS</text>
      <text x="90" y="46" font-family="'Outfit', sans-serif" font-size="12" font-weight="800" fill="#ff7043" text-anchor="middle" letter-spacing="0.5">MASTER</text>
      <g transform="translate(90, 95)">
        <circle cx="0" cy="-20" r="4.5" fill="#ff7043"/>
        <circle cx="-16" cy="10" r="4.5" fill="#ff7043"/>
        <circle cx="16" cy="10" r="4.5" fill="#ff7043"/>
        <line x1="0" y1="-20" x2="-16" y2="10" stroke="#ff7043" stroke-width="2"/>
        <line x1="0" y1="-20" x2="16" y2="10" stroke="#ff7043" stroke-width="2"/>
        <line x1="-16" y1="10" x2="16" y2="10" stroke="#ff7043" stroke-width="2"/>
        <circle cx="0" cy="0" r="8" fill="#0c1017" stroke="#ff7043" stroke-width="2.5"/>
        <circle cx="0" cy="0" r="3" fill="#ff7043"/>
      </g>
      <text x="90" y="152" font-family="'Outfit', sans-serif" font-size="26" font-weight="900" fill="#ffffff" text-anchor="middle">67</text>
      <g transform="translate(0, 175)">
        <circle cx="36" cy="12" r="7" fill="#ffd700"/>
        <text x="36" y="32" font-family="'Inter', sans-serif" font-size="9" font-weight="bold" fill="#ffd700" text-anchor="middle">72</text>
        <circle cx="90" cy="12" r="7" fill="#c0c0c0"/>
        <text x="90" y="32" font-family="'Inter', sans-serif" font-size="9" font-weight="bold" fill="#c0c0c0" text-anchor="middle">61</text>
        <circle cx="144" cy="12" r="7" fill="#cd7f32"/>
        <text x="144" y="32" font-family="'Inter', sans-serif" font-size="9" font-weight="bold" fill="#cd7f32" text-anchor="middle">298</text>
      </g>
    </svg>
  